<svg width="40" height="40" viewBox="0 0 40 40" fill="none" xmlns="http://www.w3.org/2000/svg">
<path d="M24.9998 23.3334C20.5498 23.3334 11.6665 25.5501 11.6665 30.0001V33.3334H38.3332V30.0001C38.3332 25.5501 29.4498 23.3334 24.9998 23.3334ZM9.99984 16.6667V11.6667H6.6665V16.6667H1.6665V20.0001H6.6665V25.0001H9.99984V20.0001H14.9998V16.6667H9.99984ZM24.9998 20.0001C26.7679 20.0001 28.4636 19.2977 29.7139 18.0475C30.9641 16.7972 31.6665 15.1015 31.6665 13.3334C31.6665 11.5653 30.9641 9.86961 29.7139 8.61937C28.4636 7.36913 26.7679 6.66675 24.9998 6.66675C23.2317 6.66675 21.536 7.36913 20.2858 8.61937C19.0355 9.86961 18.3332 11.5653 18.3332 13.3334C18.3332 15.1015 19.0355 16.7972 20.2858 18.0475C21.536 19.2977 23.2317 20.0001 24.9998 20.0001Z" fill="#FEFEFE"/>
</svg>
